<?xml version="1.0" encoding="UTF-8" standalone="no"?>
<!DOCTYPE svg PUBLIC "-//W3C//DTD SVG 1.1//EN" "http://www.w3.org/Graphics/SVG/1.1/DTD/svg11.dtd">
<svg version="1.1" xmlns="http://www.w3.org/2000/svg" xmlns:xlink="http://www.w3.org/1999/xlink" preserveAspectRatio="xMidYMid meet" viewBox="0 0 640 640" width="640" height="640"><defs><path d="M0 0L640 0L640 640L0 640L0 0Z" id="d2lYJswGSo"></path><linearGradient id="gradienta1uFp4NTcD" gradientUnits="userSpaceOnUse" x1="0" y1="0" x2="773.71" y2="772.58"><stop style="stop-color: #ffffff;stop-opacity: 1" offset="0%"></stop><stop style="stop-color: #5c5c5c;stop-opacity: 1" offset="100%"></stop></linearGradient><path d="M313.46 138.56C341.93 187.88 357.76 215.29 360.92 220.76C360.92 220.76 360.92 220.76 360.92 220.76C280.21 267.36 235.37 293.25 226.41 298.43C226.41 298.43 226.41 298.43 226.41 298.43C197.93 249.1 182.11 221.7 178.94 216.22C178.94 216.22 178.94 216.22 178.94 216.22C259.65 169.63 304.49 143.74 313.46 138.56C313.46 138.56 313.46 138.56 313.46 138.56Z" id="j2xG35sd"></path><path d="M220.51 296.85C219.32 294.78 220.03 292.14 222.09 290.95C235.54 283.19 343.15 221.06 356.6 213.29C358.67 212.1 361.31 212.8 362.5 214.87C363.69 216.94 362.98 219.57 360.92 220.76C334.02 236.3 239.86 290.66 226.41 298.43C224.34 299.62 221.7 298.91 220.51 296.85Z" id="b2523SglOB"></path><path d="M177.37 222.12C176.17 220.05 176.88 217.41 178.94 216.22C192.4 208.46 300.01 146.33 313.46 138.56C315.52 137.37 318.16 138.07 319.35 140.14C320.55 142.21 319.84 144.84 317.77 146.03C290.87 161.57 196.71 215.93 183.26 223.7C181.2 224.89 178.56 224.18 177.37 222.12Z" id="cXwEfAE37"></path><path d="M360.92 220.76L337.19 179.66L374.56 158.09L398.29 199.19L360.92 220.76ZM365.66 203.08L380.6 194.45L369.82 175.77L354.87 184.4L365.66 203.08Z" id="e1oBC9mMV6"></path><path d="M337.19 179.66L313.46 138.56L350.83 116.99L374.56 158.09L337.19 179.66ZM341.93 161.98L356.87 153.35L346.09 134.67L331.14 143.3L341.93 161.98Z" id="aED7O2Vr"></path><path d="M189.04 320L165.31 278.9L202.68 257.33L226.41 298.43L189.04 320ZM193.78 302.32L208.72 293.69L197.94 275.01L182.99 283.63L193.78 302.32Z" id="d3S0KoICOK"></path><path d="M165.31 278.9L141.58 237.8L178.94 216.22L202.68 257.33L165.31 278.9ZM170.05 261.22L184.99 252.59L174.21 233.91L159.26 242.53L170.05 261.22Z" id="b1keuAaYSm"></path><path d="M360.92 419.24C332.44 468.56 316.62 495.96 313.46 501.44C313.46 501.44 313.46 501.44 313.46 501.44C232.75 454.84 187.91 428.95 178.94 423.78C178.94 423.78 178.94 423.78 178.94 423.78C207.42 374.46 223.24 347.05 226.41 341.57C226.41 341.57 226.41 341.57 226.41 341.57C307.11 388.17 351.95 414.06 360.92 419.24C360.92 419.24 360.92 419.24 360.92 419.24Z" id="d2BibIZeUh"></path><path d="M177.37 417.88C178.56 415.82 181.2 415.11 183.26 416.3C196.71 424.07 304.32 486.2 317.77 493.97C319.84 495.16 320.55 497.79 319.35 499.86C318.16 501.93 315.52 502.63 313.46 501.44C286.56 485.91 192.4 431.54 178.94 423.78C176.88 422.59 176.17 419.95 177.37 417.88Z" id="f4GvCWLBIH"></path><path d="M220.51 343.15C221.7 341.09 224.34 340.38 226.41 341.57C239.86 349.34 347.47 411.47 360.92 419.24C362.98 420.43 363.69 423.06 362.5 425.13C361.31 427.2 358.67 427.9 356.6 426.71C329.7 411.18 235.54 356.81 222.09 349.05C220.03 347.86 219.32 345.22 220.51 343.15Z" id="emTekaEMg"></path><path d="M350.83 523.01L313.46 501.44L337.19 460.34L374.55 481.91L350.83 523.01ZM346.09 505.33L356.87 486.65L341.93 478.02L331.14 496.7L346.09 505.33Z" id="c3H81ej7q"></path><path d="M374.55 481.91L337.19 460.34L360.92 419.24L398.29 440.81L374.55 481.91ZM369.82 464.23L380.6 445.55L365.66 436.92L354.87 455.6L369.82 464.23Z" id="accPSQEZM"></path><path d="M178.94 423.78L141.58 402.2L165.31 361.1L202.67 382.68L178.94 423.78ZM174.21 406.09L184.99 387.41L170.05 378.78L159.26 397.47L174.21 406.09Z" id="a3dUV6ZJSy"></path><path d="M202.68 382.68L165.31 361.1L189.04 320L226.41 341.57L202.68 382.68ZM197.94 364.99L208.72 346.31L193.78 337.68L182.99 356.37L197.94 364.99Z" id="a1MdRfZBH7"></path><path d="M473.24 253.42L474.26 253.5L475.28 253.62L476.3 253.78L477.31 253.98L478.31 254.22L479.3 254.49L480.28 254.8L481.25 255.15L482.21 255.54L483.15 255.97L484.08 256.43L484.99 256.93L485.88 257.46L486.75 258.03L487.61 258.64L488.44 259.29L489.25 259.97L490.04 260.68L490.8 261.44L491.54 262.22L492.25 263.04L492.93 263.9L493.58 264.79L494.2 265.71L494.77 266.64L495.3 267.59L495.79 268.55L496.23 269.53L496.63 270.51L497 271.5L497.32 272.51L497.6 273.52L497.84 274.54L498.03 275.56L498.19 276.59L498.31 277.62L498.38 278.65L498.42 279.68L498.42 280.71L498.38 281.74L498.3 282.76L498.18 283.78L498.02 284.8L497.82 285.81L497.58 286.81L497.31 287.8L497 288.78L496.65 289.75L496.26 290.71L495.83 291.65L495.37 292.58L494.87 293.49L494.34 294.38L493.76 295.26L493.16 296.11L492.51 296.95L491.83 297.76L491.11 298.54L490.36 299.31L489.58 300.04L488.75 300.75L487.9 301.43L487.01 302.09L486.38 302.51L485.74 302.92L485.1 303.3L484.45 303.67L483.8 304.02L483.13 304.34L482.46 304.65L481.79 304.94L481.11 305.21L480.43 305.45L479.74 305.68L479.05 305.89L478.36 306.08L477.66 306.25L476.96 306.4L476.26 306.53L475.55 306.65L474.85 306.74L474.14 306.81L473.43 306.87L472.73 306.91L472.02 306.93L471.31 306.93L470.6 306.91L469.9 306.87L469.2 306.81L468.49 306.74L467.79 306.65L467.1 306.54L466.4 306.41L465.71 306.26L465.03 306.09L464.35 305.91L463.67 305.71L463 305.49L462.33 305.25L461.67 305L461.02 304.73L460.37 304.44L459.73 304.13L437.06 320L459.73 335.87L460.37 335.56L461.02 335.27L461.67 335L462.33 334.75L463 334.51L463.67 334.29L464.34 334.09L465.03 333.91L465.71 333.74L466.4 333.59L467.1 333.47L467.79 333.35L468.49 333.26L469.19 333.19L469.9 333.13L470.6 333.09L471.31 333.08L472.02 333.08L472.72 333.09L473.43 333.13L474.14 333.19L474.85 333.26L475.55 333.36L476.26 333.47L476.96 333.6L477.66 333.75L478.36 333.92L479.05 334.11L479.74 334.32L480.43 334.55L481.11 334.8L481.79 335.06L482.46 335.35L483.13 335.66L483.79 335.98L484.45 336.33L485.1 336.7L485.74 337.08L486.38 337.49L487 337.91L487.89 338.57L488.75 339.25L489.57 339.96L490.36 340.69L491.11 341.46L491.83 342.24L492.51 343.05L493.15 343.89L493.76 344.74L494.33 345.62L494.87 346.51L495.37 347.42L495.83 348.35L496.26 349.29L496.64 350.25L496.99 351.22L497.31 352.2L497.58 353.19L497.82 354.19L498.01 355.2L498.17 356.21L498.29 357.24L498.38 358.26L498.42 359.29L498.42 360.32L498.38 361.35L498.31 362.38L498.19 363.41L498.03 364.44L497.83 365.46L497.59 366.48L497.31 367.49L496.99 368.49L496.63 369.49L496.23 370.47L495.78 371.45L495.3 372.41L494.77 373.36L494.19 374.29L493.58 375.21L492.93 376.1L492.25 376.95L491.54 377.78L490.8 378.56L490.04 379.31L489.25 380.03L488.44 380.71L487.61 381.36L486.75 381.96L485.88 382.54L484.98 383.07L484.07 383.57L483.15 384.03L482.2 384.46L481.25 384.85L480.28 385.2L479.3 385.51L478.3 385.78L477.3 386.02L476.3 386.22L475.28 386.38L474.26 386.5L473.23 386.58L472.2 386.62L471.17 386.62L470.14 386.59L469.11 386.51L468.08 386.39L467.06 386.23L466.03 386.04L465.02 385.8L464 385.52L463 385.2L462.01 384.84L461.02 384.43L460.05 383.99L459.09 383.5L458.14 382.97L457.21 382.4L456.29 381.78L455.44 381.17L454.63 380.52L453.85 379.86L453.1 379.16L452.38 378.45L451.69 377.71L451.03 376.95L450.41 376.17L449.82 375.37L449.26 374.55L448.73 373.71L448.24 372.86L447.78 371.99L447.35 371.11L446.96 370.21L446.6 369.31L446.27 368.39L445.98 367.46L445.72 366.52L445.49 365.57L445.3 364.62L445.15 363.66L445.03 362.69L444.94 361.72L444.89 360.75L444.87 359.77L444.89 358.79L444.95 357.82L445.04 356.84L445.17 355.87L445.33 354.9L445.53 353.93L445.77 352.97L446.04 352.01L446.35 351.06L446.7 350.12L447.09 349.19L447.51 348.27L447.97 347.36L448.47 346.46L429.96 333.5L379.07 369.13L378.32 369.63L377.56 370.1L376.78 370.53L375.99 370.93L375.2 371.29L374.39 371.62L373.57 371.91L372.75 372.16L371.92 372.39L371.09 372.58L370.25 372.73L369.4 372.86L368.56 372.94L367.71 373L366.86 373.02L366.02 373.01L365.17 372.97L364.33 372.9L363.49 372.79L362.65 372.66L361.83 372.49L361 372.29L360.19 372.05L359.38 371.79L358.58 371.5L357.8 371.17L357.02 370.82L356.26 370.44L355.51 370.02L354.78 369.58L354.06 369.11L353.36 368.6L352.68 368.07L352.01 367.51L351.36 366.92L350.74 366.31L350.14 365.66L349.56 364.99L349 364.29L348.47 363.56L410.68 320L348.47 276.44L349.49 275.83L350.51 275.24L351.51 274.67L352.5 274.13L353.47 273.62L354.43 273.13L355.38 272.66L356.32 272.22L357.24 271.8L358.14 271.4L359.04 271.03L359.92 270.69L360.78 270.37L361.64 270.07L362.48 269.8L363.3 269.55L364.11 269.32L364.91 269.12L365.7 268.95L366.47 268.79L367.23 268.67L367.97 268.56L368.7 268.49L369.42 268.43L370.13 268.4L370.82 268.4L371.49 268.41L372.16 268.46L372.81 268.52L373.45 268.62L374.07 268.73L374.68 268.87L375.27 269.04L375.86 269.22L376.43 269.44L376.98 269.67L377.52 269.94L378.05 270.22L378.57 270.53L379.07 270.87L429.96 306.5L448.47 293.54L447.97 292.64L447.51 291.73L447.09 290.81L446.7 289.88L446.35 288.94L446.04 287.99L445.77 287.03L445.53 286.07L445.33 285.1L445.17 284.13L445.04 283.16L444.95 282.18L444.89 281.21L444.87 280.23L444.89 279.25L444.94 278.28L445.03 277.31L445.15 276.35L445.3 275.38L445.49 274.43L445.72 273.48L445.98 272.54L446.27 271.61L446.6 270.69L446.96 269.79L447.35 268.89L447.78 268.01L448.24 267.14L448.73 266.29L449.26 265.45L449.82 264.63L450.41 263.83L451.03 263.05L451.69 262.29L452.38 261.55L453.1 260.84L453.85 260.14L454.63 259.48L455.45 258.83L456.29 258.22L457.21 257.6L458.14 257.03L459.09 256.5L460.05 256.01L461.02 255.57L462.01 255.16L463 254.8L464.01 254.48L465.02 254.2L466.04 253.96L467.06 253.77L468.08 253.61L469.11 253.49L470.15 253.41L471.18 253.38L472.21 253.38L473.24 253.42ZM468.95 346.16L467.69 346.47L466.48 346.88L465.32 347.4L464.22 348.03L463.19 348.74L462.23 349.54L461.34 350.43L460.54 351.39L459.82 352.43L459.2 353.53L458.68 354.68L458.26 355.9L457.96 357.16L457.77 358.46L457.71 359.79L457.77 361.13L457.96 362.43L458.26 363.69L458.68 364.9L459.2 366.06L459.82 367.16L460.54 368.19L461.34 369.15L462.23 370.04L463.19 370.84L464.22 371.56L465.32 372.18L466.48 372.7L467.69 373.12L468.95 373.42L470.25 373.61L471.59 373.67L472.93 373.61L474.23 373.42L475.49 373.12L476.7 372.7L477.86 372.18L478.95 371.56L479.99 370.84L480.95 370.04L481.84 369.15L482.64 368.19L483.36 367.16L483.98 366.06L484.5 364.9L484.92 363.69L485.22 362.43L485.41 361.13L485.47 359.79L485.41 358.46L485.22 357.16L484.92 355.9L484.5 354.68L483.98 353.53L483.36 352.43L482.64 351.39L481.84 350.43L480.95 349.54L479.99 348.74L478.95 348.03L477.86 347.4L476.7 346.88L475.49 346.47L474.23 346.16L472.93 345.98L471.59 345.91L470.25 345.98L468.95 346.16ZM468.95 266.58L467.69 266.88L466.48 267.3L465.32 267.82L464.22 268.44L463.19 269.16L462.23 269.96L461.34 270.85L460.54 271.81L459.82 272.85L459.2 273.94L458.68 275.1L458.26 276.31L457.96 277.57L457.77 278.87L457.71 280.21L457.77 281.55L457.96 282.85L458.26 284.11L458.68 285.32L459.2 286.48L459.82 287.58L460.54 288.61L461.34 289.57L462.23 290.46L463.19 291.26L464.22 291.98L465.32 292.6L466.48 293.12L467.69 293.54L468.95 293.84L470.25 294.03L471.59 294.09L472.93 294.03L474.23 293.84L475.49 293.54L476.7 293.12L477.86 292.6L478.95 291.98L479.99 291.26L480.95 290.46L481.84 289.57L482.64 288.61L483.36 287.58L483.98 286.48L484.5 285.32L484.92 284.11L485.22 282.85L485.41 281.55L485.47 280.21L485.41 278.87L485.22 277.57L484.92 276.31L484.5 275.1L483.98 273.94L483.36 272.85L482.64 271.81L481.84 270.85L480.95 269.96L479.99 269.16L478.95 268.44L477.86 267.82L476.7 267.3L475.49 266.88L474.23 266.58L472.93 266.39L471.59 266.33L470.25 266.39L468.95 266.58Z" id="aJZ96MIPo"></path></defs><g><g><g><use xlink:href="#d2lYJswGSo" opacity="1" fill="url(#gradienta1uFp4NTcD)"></use></g><g><use xlink:href="#j2xG35sd" opacity="1" fill="#333333" fill-opacity="1"></use><g><use xlink:href="#j2xG35sd" opacity="1" fill-opacity="0" stroke="#000000" stroke-width="1" stroke-opacity="1"></use></g></g><g><use xlink:href="#b2523SglOB" opacity="1" fill="#000000" fill-opacity="1"></use><g><use xlink:href="#b2523SglOB" opacity="1" fill-opacity="0" stroke="#000000" stroke-width="1" stroke-opacity="1"></use></g></g><g><use xlink:href="#cXwEfAE37" opacity="1" fill="#000000" fill-opacity="1"></use><g><use xlink:href="#cXwEfAE37" opacity="1" fill-opacity="0" stroke="#000000" stroke-width="1" stroke-opacity="1"></use></g></g><g><use xlink:href="#e1oBC9mMV6" opacity="1" fill="#000000" fill-opacity="1"></use><g><use xlink:href="#e1oBC9mMV6" opacity="1" fill-opacity="0" stroke="#000000" stroke-width="1" stroke-opacity="1"></use></g></g><g><use xlink:href="#aED7O2Vr" opacity="1" fill="#333333" fill-opacity="1"></use><g><use xlink:href="#aED7O2Vr" opacity="1" fill-opacity="0" stroke="#000000" stroke-width="1" stroke-opacity="1"></use></g></g><g><use xlink:href="#d3S0KoICOK" opacity="1" fill="#333333" fill-opacity="1"></use><g><use xlink:href="#d3S0KoICOK" opacity="1" fill-opacity="0" stroke="#000000" stroke-width="1" stroke-opacity="1"></use></g></g><g><use xlink:href="#b1keuAaYSm" opacity="1" fill="#000000" fill-opacity="1"></use><g><use xlink:href="#b1keuAaYSm" opacity="1" fill-opacity="0" stroke="#000000" stroke-width="1" stroke-opacity="1"></use></g></g><g><use xlink:href="#d2BibIZeUh" opacity="1" fill="#333333" fill-opacity="1"></use><g><use xlink:href="#d2BibIZeUh" opacity="1" fill-opacity="0" stroke="#000000" stroke-width="1" stroke-opacity="1"></use></g></g><g><use xlink:href="#f4GvCWLBIH" opacity="1" fill="#000000" fill-opacity="1"></use><g><use xlink:href="#f4GvCWLBIH" opacity="1" fill-opacity="0" stroke="#000000" stroke-width="1" stroke-opacity="1"></use></g></g><g><use xlink:href="#emTekaEMg" opacity="1" fill="#000000" fill-opacity="1"></use><g><use xlink:href="#emTekaEMg" opacity="1" fill-opacity="0" stroke="#000000" stroke-width="1" stroke-opacity="1"></use></g></g><g><use xlink:href="#c3H81ej7q" opacity="1" fill="#000000" fill-opacity="1"></use><g><use xlink:href="#c3H81ej7q" opacity="1" fill-opacity="0" stroke="#000000" stroke-width="1" stroke-opacity="1"></use></g></g><g><use xlink:href="#accPSQEZM" opacity="1" fill="#333333" fill-opacity="1"></use><g><use xlink:href="#accPSQEZM" opacity="1" fill-opacity="0" stroke="#000000" stroke-width="1" stroke-opacity="1"></use></g></g><g><use xlink:href="#a3dUV6ZJSy" opacity="1" fill="#333333" fill-opacity="1"></use><g><use xlink:href="#a3dUV6ZJSy" opacity="1" fill-opacity="0" stroke="#000000" stroke-width="1" stroke-opacity="1"></use></g></g><g><use xlink:href="#a1MdRfZBH7" opacity="1" fill="#000000" fill-opacity="1"></use><g><use xlink:href="#a1MdRfZBH7" opacity="1" fill-opacity="0" stroke="#000000" stroke-width="1" stroke-opacity="1"></use></g></g><g><use xlink:href="#aJZ96MIPo" opacity="1" fill="#000000" fill-opacity="1"></use><g><use xlink:href="#aJZ96MIPo" opacity="1" fill-opacity="0" stroke="#000000" stroke-width="1" stroke-opacity="0"></use></g></g></g></g></svg>